<svg width="26" height="32" viewBox="0 0 26 32" fill="none" xmlns="http://www.w3.org/2000/svg">
<path d="M4 26.5V13C4 10.6131 4.94821 8.32387 6.63604 6.63604C8.32387 4.94821 10.6131 4 13 4C15.3869 4 17.6761 4.94821 19.364 6.63604C21.0518 8.32387 22 10.6131 22 13V26.5M4 26.5H22M4 26.5H1M22 26.5H25M11.5 31H14.5" stroke="#C0FF73" stroke-width="2" stroke-linecap="round" stroke-linejoin="round"/>
<path d="M13 4C13.8284 4 14.5 3.32843 14.5 2.5C14.5 1.67157 13.8284 1 13 1C12.1716 1 11.5 1.67157 11.5 2.5C11.5 3.32843 12.1716 4 13 4Z" stroke="#C0FF73" stroke-width="2"/>
</svg>
