<svg width="20" height="21" viewBox="0 0 20 21" fill="none" xmlns="http://www.w3.org/2000/svg">
<path opacity="0.4" d="M14.34 0.5H5.67C2.28 0.5 0 2.88 0 6.42V14.59C0 18.12 2.28 20.5 5.67 20.5H14.34C17.73 20.5 20 18.12 20 14.59V6.42C20 2.88 17.73 0.5 14.34 0.5" fill="#FF0101"/>
<path d="M7.41 6.5L6 7.91L6.72 8.63L8.5 10.44L6.72 12.22L6 12.91L7.41 14.35L8.13 13.63L9.94 11.82L11.72 13.63L12.41 14.35L13.85 12.91L13.13 12.22L11.32 10.44L13.13 8.63L13.85 7.91L12.41 6.5L11.72 7.22L9.94 9L8.13 7.22L7.41 6.5Z" fill="white"/>
</svg>
