<svg width="20" height="21" viewBox="0 0 20 21" fill="none" xmlns="http://www.w3.org/2000/svg">
<path opacity="0.4" d="M14.34 0.5H5.67C2.28 0.5 0 2.88 0 6.42V14.59C0 18.12 2.28 20.5 5.67 20.5H14.34C17.73 20.5 20 18.12 20 14.59V6.42C20 2.88 17.73 0.5 14.34 0.5" fill="#4CAF50"/>
<path d="M8.81295 13.7485C8.58895 13.7485 8.36495 13.6635 8.19395 13.4925L5.82095 11.1195C5.47895 10.7775 5.47895 10.2235 5.82095 9.88245C6.16295 9.54045 6.71595 9.53945 7.05795 9.88145L8.81295 11.6365L12.941 7.50845C13.283 7.16645 13.836 7.16645 14.178 7.50845C14.52 7.85045 14.52 8.40445 14.178 8.74645L9.43195 13.4925C9.26095 13.6635 9.03695 13.7485 8.81295 13.7485" fill="#4CAF50"/>
</svg>
