<svg width="22" height="22" viewBox="0 0 22 22" fill="none" xmlns="http://www.w3.org/2000/svg">
<path d="M1.66602 18.0026C1.66602 16.7649 2.15768 15.5779 3.03285 14.7028C3.90802 13.8276 5.09501 13.3359 6.33268 13.3359H15.666C16.9037 13.3359 18.0907 13.8276 18.9658 14.7028C19.841 15.5779 20.3327 16.7649 20.3327 18.0026C20.3327 18.6214 20.0868 19.2149 19.6493 19.6525C19.2117 20.0901 18.6182 20.3359 17.9993 20.3359H3.99935C3.38051 20.3359 2.78702 20.0901 2.34943 19.6525C1.91185 19.2149 1.66602 18.6214 1.66602 18.0026Z" stroke="#A7A8AB" stroke-width="1.7" stroke-linejoin="round"/>
<path d="M11 8.66797C12.933 8.66797 14.5 7.10097 14.5 5.16797C14.5 3.23497 12.933 1.66797 11 1.66797C9.067 1.66797 7.5 3.23497 7.5 5.16797C7.5 7.10097 9.067 8.66797 11 8.66797Z" stroke="#A7A8AB" stroke-width="1.7"/>
</svg>
