<svg width="18" height="17" viewBox="0 0 18 17" fill="none" xmlns="http://www.w3.org/2000/svg">
<path fill-rule="evenodd" clip-rule="evenodd" d="M4.34435 0.516681C7.43823 0.174127 10.5605 0.174127 13.6543 0.516681C15.3673 0.708681 16.7493 2.05768 16.9503 3.77668C17.317 6.91468 17.317 10.0847 16.9503 13.2227C16.7493 14.9417 15.3673 16.2907 13.6543 16.4827C10.5605 16.8252 7.43823 16.8252 4.34435 16.4827C2.63135 16.2907 1.24935 14.9417 1.04835 13.2227C0.681801 10.085 0.681801 6.91535 1.04835 3.77768C1.15001 2.94255 1.53073 2.16623 2.12878 1.57453C2.72683 0.982825 3.50718 0.610425 4.34335 0.517681M8.99935 3.50668C9.19826 3.50668 9.38902 3.5857 9.52968 3.72635C9.67033 3.867 9.74935 4.05777 9.74935 4.25668V7.74968H13.2423C13.4413 7.74968 13.632 7.8287 13.7727 7.96935C13.9133 8.11 13.9923 8.30077 13.9923 8.49968C13.9923 8.69859 13.9133 8.88936 13.7727 9.03001C13.632 9.17066 13.4413 9.24968 13.2423 9.24968H9.74935V12.7427C9.74935 12.9416 9.67033 13.1324 9.52968 13.273C9.38902 13.4137 9.19826 13.4927 8.99935 13.4927C8.80043 13.4927 8.60967 13.4137 8.46902 13.273C8.32836 13.1324 8.24935 12.9416 8.24935 12.7427V9.24968H4.75635C4.55743 9.24968 4.36667 9.17066 4.22602 9.03001C4.08536 8.88936 4.00635 8.69859 4.00635 8.49968C4.00635 8.30077 4.08536 8.11 4.22602 7.96935C4.36667 7.8287 4.55743 7.74968 4.75635 7.74968H8.24935V4.25668C8.24935 4.05777 8.32836 3.867 8.46902 3.72635C8.60967 3.5857 8.80043 3.50668 8.99935 3.50668Z" fill="black"/>
</svg>
