<svg width="20" height="21" viewBox="0 0 20 21" fill="none" xmlns="http://www.w3.org/2000/svg">
<path opacity="0.4" d="M20 10.5C20 16.024 15.523 20.5 10 20.5C4.477 20.5 0 16.024 0 10.5C0 4.978 4.477 0.5 10 0.5C15.523 0.5 20 4.978 20 10.5" fill="#FFD66B"/>
<path d="M13.5734 14.3148C13.4424 14.3148 13.3104 14.2808 13.1894 14.2098L9.26344 11.8678C9.03744 11.7318 8.89844 11.4868 8.89844 11.2228V6.17578C8.89844 5.76178 9.23444 5.42578 9.64844 5.42578C10.0624 5.42578 10.3984 5.76178 10.3984 6.17578V10.7968L13.9584 12.9198C14.3134 13.1328 14.4304 13.5928 14.2184 13.9488C14.0774 14.1838 13.8284 14.3148 13.5734 14.3148" fill="#FFD66B"/>
</svg>
